<svg width="571" height="392" viewBox="0 0 571 392" fill="none" xmlns="http://www.w3.org/2000/svg">
<rect x="122.28" y="113.399" width="252.832" height="271.597" fill="#064272" stroke="#062442" stroke-width="12.5594"/>
<path d="M223.175 118.866H333.552H435.825L443.929 122.213V264.019L435.415 267.566H333.552H223.175V118.866Z" fill="#036EB8" stroke="black" stroke-width="3.13985"/>
<path opacity="0.4" d="M269.869 307.72L378.57 302.967L371.113 312.387L368.366 378.716H189.001L269.869 307.72Z" fill="#067DCA"/>
<rect x="213.812" y="118.866" width="220.754" height="148.701" fill="#089AFE" stroke="black" stroke-width="3.13985"/>
<path d="M134.954 347.902L214.984 277.2L434.27 269.939L435.727 283.126L374.309 361.994L136.446 357.353L134.954 347.902Z" fill="#036EB8" stroke="black" stroke-width="3.13985"/>
<rect x="213.812" y="131.485" width="220.754" height="123.869" fill="#064272" stroke="black" stroke-width="3.13985"/>
<path d="M136.966 346.391L213.053 269.892H432.919L369.279 351.408L136.966 346.391Z" fill="#60BEFF" stroke="black" stroke-width="3.13985"/>
<path d="M219.873 277.869C220.021 277.714 220.226 277.627 220.44 277.627H407.841C408.499 277.627 408.865 278.387 408.455 278.901L380.268 314.27L381.495 315.248L380.268 314.27C380.116 314.46 379.884 314.569 379.641 314.565L189.571 311.417C188.886 311.406 188.543 310.584 189.017 310.089L219.873 277.869L218.739 276.783L219.873 277.869Z" fill="#064272" stroke="black" stroke-width="3.13985"/>
<path d="M234.923 322.001C236.593 320.194 238.953 319.184 241.413 319.226L297.771 320.184C300.996 320.239 302.782 323.945 300.815 326.501L287.841 343.368C287.69 343.564 287.456 343.678 287.208 343.674L217.547 342.743C216.868 342.734 216.52 341.925 216.981 341.426L234.923 322.001Z" fill="#036EB8" stroke="black" stroke-width="3.13985"/>
<rect opacity="0.3" x="229.747" y="137.65" width="166.088" height="111.133" rx="8.63459" fill="#DACECE"/>
<mask id="mask0_103_2" style="mask-type:alpha" maskUnits="userSpaceOnUse" x="184" y="276" width="229" height="41">
<path d="M187.774 311.387L220.105 277.627H409.47L380.027 314.572L187.774 311.387Z" fill="#C4C4C4" stroke="black" stroke-width="3.13985"/>
</mask>
<g mask="url(#mask0_103_2)">
<path d="M206.951 315.95L239.924 274.225M229.34 315.95L262.313 274.225M262.313 304.348L285.313 274.225M283.278 304.348L307.703 274.225M302.818 304.348L327.039 274.225M316.455 315.95L349.428 274.225M339.455 315.95L372.428 274.225M361.844 315.95L394.818 274.225" stroke="black" stroke-width="3.13985"/>
<path d="M208.375 283.791H408.251M199.42 294.782H400.313M189.65 304.552H392.782" stroke="black" stroke-width="3.13985"/>
</g>
<rect x="142.695" y="83.5699" width="200.159" height="152.283" rx="6.27971" fill="white" stroke="#062442" stroke-width="3.13985"/>
<path d="M142.689 89.8499C142.689 86.3817 145.5 83.5702 148.968 83.5702H337.035C340.503 83.5702 343.315 86.3817 343.315 89.8499V112.804H142.689V89.8499Z" fill="#E0F0FE" stroke="#062442" stroke-width="3.13985"/>
<circle cx="160.162" cy="99.1393" r="3.80871" fill="#FF8484"/>
<circle cx="171.958" cy="99.1393" r="3.80871" fill="#85E08E"/>
<circle cx="184.447" cy="99.1393" r="3.80871" fill="#FAFFDE"/>
<rect x="416.189" y="136.428" width="12.6195" height="11.8053" rx="1.56993" fill="#FAFFDE"/>
<rect x="416.189" y="159.225" width="12.6195" height="11.8053" rx="1.56993" fill="#60BEFF"/>
<path d="M416.661 153.458C416.786 153.359 417.917 152.292 418.014 152.737C418.185 153.52 418.744 152.9 419.268 152.658C419.67 152.472 420.126 152.936 420.568 152.953C420.915 152.966 421.278 152.842 421.622 152.926C421.935 153.003 422.146 153.18 422.485 153.195C423.429 153.238 424.314 153.239 425.261 153.079C426.419 152.883 427.53 152.795 428.7 152.795" stroke="black" stroke-width="0.784963" stroke-linecap="round" stroke-linejoin="round"/>
<path d="M416.661 176.255C416.786 176.156 417.917 175.089 418.014 175.533C418.185 176.317 418.744 175.696 419.268 175.454C419.67 175.269 420.126 175.732 420.568 175.749C420.915 175.763 421.278 175.639 421.622 175.723C421.935 175.8 422.146 175.976 422.485 175.992C423.429 176.035 424.314 176.036 425.261 175.876C426.419 175.68 427.53 175.591 428.7 175.591" stroke="black" stroke-width="0.784963" stroke-linecap="round" stroke-linejoin="round"/>
<rect x="229.495" y="202.884" width="63.582" height="15.6993" rx="7.84963" fill="#FFC7C7"/>
<rect opacity="0.25" x="161.203" y="202.884" width="63.582" height="15.6993" rx="7.84963" fill="#FFC7C7"/>
<path d="M162.773 133.023H322.121" stroke="#062442" stroke-width="3.13985" stroke-linecap="round"/>
<path d="M162.773 144.012H322.121" stroke="#062442" stroke-width="3.13985" stroke-linecap="round"/>
<path d="M162.773 155.002H242.84" stroke="#062442" stroke-width="3.13985" stroke-linecap="round"/>
<mask id="path-28-inside-1_103_2" fill="white">
<path fill-rule="evenodd" clip-rule="evenodd" d="M80.6893 0C109.391 0 132.659 23.2675 132.659 51.9694C132.659 72.2839 121.003 89.8761 104.014 98.4231L104.623 125.691L68.8178 103.939H51.9693C23.2674 103.939 -7.62939e-05 80.6713 -7.62939e-05 51.9694C-7.62939e-05 23.2675 23.2674 0 51.9693 0H80.6893Z"/>
</mask>
<path fill-rule="evenodd" clip-rule="evenodd" d="M80.6893 0C109.391 0 132.659 23.2675 132.659 51.9694C132.659 72.2839 121.003 89.8761 104.014 98.4231L104.623 125.691L68.8178 103.939H51.9693C23.2674 103.939 -7.62939e-05 80.6713 -7.62939e-05 51.9694C-7.62939e-05 23.2675 23.2674 0 51.9693 0H80.6893Z" fill="white"/>
<path d="M104.014 98.4231L95.3817 98.6158L95.26 93.1615L100.134 90.7096L104.014 98.4231ZM104.623 125.691L113.255 125.498L113.607 141.252L100.14 133.07L104.623 125.691ZM68.8178 103.939V95.3042H71.235L73.3009 96.5593L68.8178 103.939ZM124.024 51.9694C124.024 28.0363 104.622 8.63459 80.6893 8.63459V-8.63459C114.16 -8.63459 141.293 18.4988 141.293 51.9694H124.024ZM100.134 90.7096C114.321 83.5721 124.024 68.8962 124.024 51.9694H141.293C141.293 75.6717 127.685 96.1802 107.895 106.137L100.134 90.7096ZM95.9905 125.884L95.3817 98.6158L112.647 98.2303L113.255 125.498L95.9905 125.884ZM73.3009 96.5593L109.106 118.311L100.14 133.07L64.3346 111.318L73.3009 96.5593ZM51.9693 95.3042H68.8178V112.573H51.9693V95.3042ZM8.63452 51.9694C8.63452 75.9026 28.0362 95.3042 51.9693 95.3042V112.573C18.4986 112.573 -8.63467 85.4401 -8.63467 51.9694H8.63452ZM51.9693 8.63459C28.0362 8.63459 8.63452 28.0363 8.63452 51.9694H-8.63467C-8.63467 18.4988 18.4987 -8.63459 51.9693 -8.63459V8.63459ZM80.6893 8.63459H51.9693V-8.63459H80.6893V8.63459Z" fill="#062442" mask="url(#path-28-inside-1_103_2)"/>
<mask id="path-30-inside-2_103_2" fill="white">
<path fill-rule="evenodd" clip-rule="evenodd" d="M428.969 179C400.267 179 377 202.268 377 230.969C377 256.162 394.926 277.168 418.718 281.928L417.975 304.691L470.305 282.939H518.916C547.618 282.939 570.886 259.671 570.886 230.969C570.886 202.268 547.618 179 518.916 179H428.969Z"/>
</mask>
<path fill-rule="evenodd" clip-rule="evenodd" d="M428.969 179C400.267 179 377 202.268 377 230.969C377 256.162 394.926 277.168 418.718 281.928L417.975 304.691L470.305 282.939H518.916C547.618 282.939 570.886 259.671 570.886 230.969C570.886 202.268 547.618 179 518.916 179H428.969Z" fill="white"/>
<path d="M418.718 281.928L427.348 282.21L427.587 274.897L420.412 273.461L418.718 281.928ZM417.975 304.691L409.345 304.409L408.908 317.81L421.289 312.664L417.975 304.691ZM470.305 282.939V274.304H468.582L466.991 274.966L470.305 282.939ZM385.635 230.969C385.635 207.036 405.036 187.635 428.969 187.635V170.365C395.499 170.365 368.365 197.499 368.365 230.969H385.635ZM420.412 273.461C400.577 269.493 385.635 251.966 385.635 230.969H368.365C368.365 260.358 389.275 284.843 417.024 290.395L420.412 273.461ZM426.605 304.972L427.348 282.21L410.088 281.646L409.345 304.409L426.605 304.972ZM466.991 274.966L414.661 296.717L421.289 312.664L473.62 290.912L466.991 274.966ZM518.916 274.304H470.305V291.573H518.916V274.304ZM562.251 230.969C562.251 254.903 542.85 274.304 518.916 274.304V291.573C552.387 291.573 579.52 264.44 579.52 230.969H562.251ZM518.916 187.635C542.85 187.635 562.251 207.036 562.251 230.969H579.52C579.52 197.499 552.387 170.365 518.916 170.365V187.635ZM428.969 187.635H518.916V170.365H428.969V187.635Z" fill="#062442" mask="url(#path-30-inside-2_103_2)"/>
</svg>
