<svg width="201" height="201" viewBox="0 0 201 201" fill="none" xmlns="http://www.w3.org/2000/svg">
<path d="M87.1026 180.541C88.039 180.702 88.8855 181.035 89.6422 181.54C90.3913 182.05 91.0155 182.683 91.5148 183.439C92.0131 184.201 92.3612 185.037 92.5593 185.948C92.7562 186.866 92.7708 187.813 92.603 188.788C92.4318 189.783 92.0935 190.679 91.5882 191.476C91.0828 192.272 90.4632 192.936 89.7293 193.466C88.9943 194.002 88.1928 194.38 87.325 194.598C86.4506 194.816 85.5582 194.847 84.6478 194.69C83.6009 194.51 82.6545 194.096 81.8085 193.448C80.956 192.8 80.2819 191.971 79.786 190.961L81.1194 190.508C81.5221 191.28 82.0596 191.912 82.7317 192.402C83.3973 192.892 84.1171 193.203 84.8909 193.336C85.6257 193.462 86.344 193.432 87.0457 193.245C87.7398 193.063 88.3793 192.751 88.9641 192.31C89.5489 191.868 90.0405 191.326 90.4387 190.685C90.8369 190.044 91.1043 189.327 91.2408 188.534C91.3761 187.747 91.3633 186.985 91.2023 186.247C91.0413 185.51 90.7623 184.836 90.3652 184.225C89.9605 183.62 89.4588 183.112 88.86 182.701C88.26 182.296 87.5894 182.03 86.8481 181.903C86.2369 181.798 85.6402 181.802 85.0582 181.916C84.4686 182.036 83.9131 182.248 83.3919 182.553C82.8707 182.859 82.4099 183.241 82.0094 183.701C81.6023 184.16 81.2753 184.68 81.0282 185.26L84.7152 185.894L84.502 187.133L79.2251 186.225C79.4069 185.286 79.7476 184.434 80.2473 183.669C80.7471 182.905 81.3601 182.261 82.0864 181.736C82.8051 181.217 83.5951 180.848 84.4564 180.627C85.3102 180.413 86.1922 180.384 87.1026 180.541Z" fill="#181918"/>
<path d="M69.4762 175.495C70.3157 175.848 70.9916 176.386 71.5037 177.109C72.0098 177.829 72.3177 178.639 72.4273 179.536C72.5284 180.437 72.3937 181.329 72.0232 182.211C71.7422 182.88 71.3617 183.454 70.8818 183.932C70.3993 184.417 69.8592 184.791 69.2616 185.055C68.6553 185.323 68.023 185.466 67.3647 185.483C66.7063 185.5 66.0638 185.376 65.4372 185.113C64.762 184.83 64.1976 184.435 63.7443 183.93C63.2848 183.422 62.9522 182.842 62.7464 182.191C62.5346 181.536 62.4606 180.843 62.5246 180.112C62.5824 179.377 62.7867 178.644 63.1375 177.911L70.8758 181.16C71.0455 180.552 71.0801 179.958 70.9797 179.379C70.8732 178.798 70.648 178.277 70.3042 177.818C69.9517 177.362 69.4969 177.014 68.9397 176.773C68.3314 176.517 67.7174 176.446 67.0979 176.558C66.4723 176.667 65.8942 176.936 65.3636 177.364L64.1943 176.519C64.8991 175.863 65.7281 175.431 66.6813 175.223C67.632 175.021 68.5637 175.112 69.4762 175.495ZM70.4793 182.207L63.9911 179.482C63.7961 180.066 63.7524 180.656 63.8598 181.252C63.9586 181.852 64.1866 182.391 64.5436 182.87C64.898 183.355 65.3581 183.717 65.9239 183.954C66.4897 184.192 67.0655 184.269 67.6515 184.186C68.2349 184.109 68.7753 183.896 69.2726 183.547C69.7674 183.203 70.1696 182.757 70.4793 182.207Z" fill="#181918"/>
<path d="M49.5653 174.668L51.5556 175.947L56.1638 168.79L57.3297 169.539L52.7214 176.695L54.2287 177.664L53.4799 178.829L51.9726 177.861L50.3014 180.482L49.1356 179.733L50.8068 177.113L48.8165 175.834L49.5653 174.668Z" fill="#181918"/>
<path d="M38.7502 153.188C39.2268 153.752 39.6003 154.374 39.8706 155.052C40.1367 155.726 40.2718 156.397 40.2759 157.067C40.2801 157.737 40.1233 158.344 39.8057 158.889L38.5989 158.211C38.8179 157.836 38.9174 157.407 38.8975 156.923C38.8683 156.438 38.7483 155.948 38.5374 155.452C38.3222 154.952 38.0402 154.495 37.6912 154.081C37.2827 153.597 36.8212 153.214 36.3066 152.932C35.792 152.649 35.2825 152.501 34.7781 152.486C34.2686 152.476 33.8172 152.637 33.4238 152.969C33.0255 153.305 32.8105 153.715 32.7788 154.199C32.7472 154.684 32.837 155.199 33.0482 155.746C33.2502 156.292 33.5044 156.829 33.811 157.356C34.2934 158.183 34.6688 158.976 34.9371 159.734C35.2011 160.487 35.2769 161.195 35.1645 161.86C35.0469 162.529 34.6629 163.138 34.0125 163.687C33.4023 164.202 32.7239 164.472 31.9772 164.498C31.2305 164.524 30.4911 164.354 29.7589 163.987C29.0224 163.616 28.3712 163.095 27.8052 162.424C27.3414 161.874 26.9739 161.265 26.7028 160.596C26.4317 159.927 26.2919 159.255 26.2835 158.58C26.2708 157.9 26.427 157.272 26.7521 156.695L27.9641 157.395C27.7401 157.774 27.6426 158.206 27.6718 158.69C27.6917 159.174 27.8096 159.662 28.0256 160.153C28.2365 160.649 28.5185 161.106 28.8718 161.524C29.271 162.007 29.7304 162.388 30.25 162.666C30.7603 162.944 31.2702 163.087 31.7797 163.098C32.2842 163.112 32.7305 162.956 33.1188 162.628C33.5726 162.245 33.8231 161.831 33.8702 161.385C33.908 160.939 33.8129 160.458 33.585 159.942C33.357 159.427 33.0718 158.869 32.7293 158.269C32.2751 157.495 31.9268 156.714 31.6845 155.926C31.4372 155.142 31.3688 154.401 31.4794 153.703C31.5849 153.01 31.9352 152.412 32.5302 151.91C33.1353 151.399 33.8137 151.129 34.5654 151.099C35.3121 151.073 36.0537 151.246 36.7901 151.617C37.5223 151.983 38.1757 152.507 38.7502 153.188Z" fill="#181918"/>
<path d="M21.1303 142.908L22.3089 144.959L29.6937 140.727L30.3841 141.928L22.9993 146.16L23.8919 147.714L22.6906 148.404L21.798 146.851L19.1084 148.408L18.418 147.207L21.1075 145.649L19.9289 143.599L21.1303 142.908Z" fill="#181918"/>
<path d="M13.4995 128.513L13.0266 127.211L22.3299 123.833L22.8027 125.136L21.0892 125.81C21.7887 125.9 22.4205 126.152 22.9846 126.565C23.5425 126.98 23.9587 127.566 24.2334 128.323C24.4811 129.005 24.5859 129.69 24.5477 130.378C24.5034 131.068 24.337 131.721 24.0486 132.338C23.7602 132.955 23.3644 133.499 22.8613 133.97C22.3582 134.44 21.7656 134.799 21.0833 135.047C20.4135 135.29 19.7389 135.394 19.0597 135.36C18.3782 135.32 17.7342 135.16 17.1278 134.882C16.5191 134.598 15.9849 134.209 15.5252 133.716C15.057 133.219 14.7013 132.636 14.4582 131.966C14.1767 131.191 14.1174 130.447 14.2801 129.735C14.4366 129.026 14.7507 128.392 15.2223 127.835L13.4995 128.513ZM22.9783 128.81C22.7374 128.146 22.369 127.634 21.8731 127.274C21.371 126.915 20.7978 126.709 20.1535 126.656C19.507 126.595 18.8519 126.686 18.1882 126.927C17.506 127.174 16.9393 127.528 16.488 127.986C16.0306 128.447 15.7273 128.975 15.5782 129.569C15.429 130.164 15.4738 130.79 15.7124 131.448C15.9511 132.105 16.3339 132.647 16.8607 133.073C17.3791 133.496 17.9728 133.768 18.6419 133.89C19.3087 134.006 19.9771 133.943 20.6469 133.7C21.3229 133.454 21.8773 133.067 22.31 132.538C22.7364 132.011 23.013 131.419 23.1396 130.762C23.264 130.1 23.2102 129.449 22.9783 128.81Z" fill="#181918"/>
<path d="M20.68 116.931L10.9235 118.594L10.6906 117.228L12.037 116.999C11.4839 116.738 11.0138 116.357 10.6269 115.854C10.2399 115.351 9.99098 114.774 9.88008 114.124C9.81575 113.746 9.80243 113.374 9.84011 113.006L11.2911 113.331C11.2531 113.618 11.2563 113.892 11.3007 114.152C11.3905 114.679 11.6032 115.142 11.9388 115.54C12.2733 115.931 12.6806 116.22 13.1607 116.406C13.6409 116.591 14.1476 116.639 14.681 116.548L20.4471 115.565L20.68 116.931Z" fill="#181918"/>
<path d="M10.5008 99.4732L10.5467 101.838L19.057 101.683L19.0839 103.068L10.5736 103.224L10.6084 105.015L9.22305 105.042L9.18826 103.25L6.08128 103.321L6.05437 101.935L9.16135 101.865L9.11542 99.5001L10.5008 99.4732Z" fill="#181918"/>
<path d="M20.1964 88.475C20.0567 89.3748 19.6978 90.1604 19.1195 90.8319C18.5423 91.4968 17.8313 91.9908 16.9866 92.3138C16.1364 92.6292 15.2385 92.7136 14.2931 92.5669C13.5759 92.4556 12.9273 92.2247 12.3473 91.8743C11.7609 91.5229 11.2673 91.0891 10.8666 90.5728C10.4605 90.0491 10.1698 89.4698 9.99452 88.835C9.81927 88.2002 9.78375 87.547 9.88796 86.8754C10.0003 86.1516 10.2469 85.5088 10.6279 84.947C11.0099 84.3786 11.4923 83.916 12.0752 83.559C12.6591 83.1956 13.3138 82.9567 14.0394 82.8422C14.7659 82.7213 15.5271 82.7426 16.3231 82.9061L15.0361 91.1998C15.6676 91.2177 16.2522 91.1081 16.7898 90.871C17.3284 90.6274 17.7791 90.2833 18.1418 89.8388C18.4991 89.3868 18.7275 88.8614 18.8271 88.2625C18.9283 87.6105 18.8498 86.9974 18.5917 86.4232C18.3346 85.8424 17.9342 85.3463 17.3905 84.9347L17.9287 83.596C18.7352 84.1218 19.3543 84.8221 19.7861 85.6971C20.2114 86.571 20.3481 87.497 20.1964 88.475ZM13.9248 91.0674L15.0039 84.1137C14.3904 84.0652 13.8074 84.165 13.2547 84.4131C12.6966 84.6537 12.2281 85.005 11.8492 85.467C11.4639 85.9281 11.2241 86.4618 11.1301 87.0681C11.036 87.6745 11.0999 88.252 11.3219 88.8006C11.5374 89.3482 11.8747 89.8212 12.3337 90.2196C12.7862 90.617 13.3165 90.8996 13.9248 91.0674Z" fill="#181918"/>
<path d="M11.4463 63.6821L11.9308 62.3839L25.8396 67.575L25.3551 68.8732L23.6211 68.226C24.0946 68.7689 24.4087 69.3897 24.5635 70.0884C24.7144 70.7786 24.6468 71.5069 24.3607 72.2734C24.1092 72.9473 23.7472 73.5305 23.2746 74.0232C22.8019 74.5158 22.2589 74.9047 21.6454 75.1899C21.028 75.4666 20.3784 75.622 19.6965 75.6563C19.0147 75.6906 18.3368 75.582 17.663 75.3305C16.9892 75.079 16.406 74.717 15.9133 74.2443C15.4145 73.7694 15.0255 73.2263 14.7466 72.6151C14.4637 71.9954 14.3052 71.3447 14.2709 70.6628C14.2366 69.981 14.3452 69.3031 14.5967 68.6293C14.8828 67.8628 15.312 67.2694 15.8844 66.8492C16.4529 66.4204 17.0907 66.155 17.798 66.0527L11.4463 63.6821ZM23.1031 71.7935C23.35 71.1321 23.4015 70.5034 23.2577 69.9074C23.1077 69.3091 22.805 68.7806 22.3494 68.3218C21.8961 67.8569 21.3387 67.5009 20.6773 67.2541C19.9973 67.0003 19.3369 66.9017 18.696 66.9583C18.0489 67.0126 17.4758 67.2178 16.9767 67.5738C16.4776 67.9298 16.1058 68.4354 15.8612 69.0907C15.6167 69.746 15.5579 70.4036 15.6848 71.0637C15.8055 71.7215 16.081 72.3138 16.5112 72.8406C16.9414 73.3674 17.4903 73.7553 18.1579 74.0045C18.8317 74.256 19.5048 74.3206 20.1773 74.1983C20.8436 74.0737 21.4378 73.8025 21.9599 73.3846C22.4844 72.9606 22.8655 72.4302 23.1031 71.7935Z" fill="#181918"/>
<path d="M38.3514 48.2256C37.7365 48.9499 37.0191 49.5093 36.1994 49.9039C35.3788 50.2892 34.5164 50.5048 33.612 50.5505C32.7025 50.592 31.8052 50.4663 30.9199 50.1734C30.0297 49.8763 29.2073 49.4074 28.4528 48.7668C27.6833 48.1134 27.084 47.3665 26.6549 46.5262C26.2259 45.6858 25.9699 44.815 25.8869 43.9136C25.799 43.0079 25.8814 42.1258 26.1344 41.2673C26.3915 40.4036 26.8191 39.6198 27.417 38.9156C28.1045 38.1058 28.9423 37.5014 29.9302 37.1025C30.9224 36.6985 31.9791 36.5396 33.1002 36.626L32.8125 38.0047C31.9428 37.9587 31.1258 38.1003 30.3615 38.4295C29.6015 38.7537 28.9675 39.215 28.4593 39.8136C27.9767 40.3819 27.6375 41.0158 27.4419 41.7152C27.2454 42.4054 27.1886 43.1145 27.2715 43.8427C27.3543 44.5709 27.5705 45.2694 27.92 45.9384C28.2695 46.6074 28.7511 47.2024 29.3647 47.7234C29.9733 48.2401 30.636 48.6167 31.3528 48.8531C32.0696 49.0895 32.7919 49.192 33.5196 49.1607C34.2465 49.1201 34.9392 48.9465 35.5976 48.64C36.251 48.3292 36.8212 47.8871 37.308 47.3137C37.7094 46.8409 38.009 46.3249 38.2068 45.7658C38.4038 45.1973 38.5034 44.611 38.5056 44.007C38.5078 43.4029 38.4127 42.8115 38.2203 42.2327C38.0323 41.6489 37.7513 41.1031 37.3775 40.5952L34.9561 43.4471L33.9979 42.6336L37.4635 38.5519C38.18 39.1862 38.7402 39.9129 39.1441 40.7319C39.548 41.5509 39.791 42.4064 39.8732 43.2985C39.9546 44.1813 39.871 45.0494 39.6224 45.903C39.373 46.7472 38.9493 47.5214 38.3514 48.2256Z" fill="#181918"/>
<path d="M51.6598 35.6151C50.9293 36.1586 50.1225 36.467 49.2393 36.5401C48.3615 36.6094 47.5082 36.4629 46.6796 36.1008C45.8523 35.7295 45.153 35.16 44.5819 34.3924C44.1487 33.8101 43.8482 33.1907 43.6805 32.5342C43.5088 31.8724 43.4612 31.217 43.5375 30.568C43.6153 29.9098 43.8143 29.293 44.1345 28.7175C44.4547 28.142 44.8875 27.6515 45.4327 27.2458C46.0203 26.8086 46.6469 26.5233 47.3126 26.3899C47.9835 26.2526 48.6518 26.2611 49.3177 26.4154C49.9888 26.5658 50.6231 26.8546 51.2206 27.2818C51.8234 27.7051 52.3511 28.2541 52.8038 28.9288L46.0702 33.9389C46.5079 34.3945 47.0015 34.7263 47.551 34.9343C48.1058 35.1383 48.6684 35.2091 49.2387 35.1466C49.8104 35.0749 50.3417 34.8605 50.8327 34.5034C51.3621 34.1096 51.7361 33.6174 51.9548 33.0271C52.1787 32.4328 52.2412 31.7982 52.1422 31.1235L53.4647 30.5466C53.6709 31.487 53.6212 32.4205 53.3154 33.347C53.0057 34.2683 52.4539 35.0243 51.6598 35.6151ZM45.3709 33.0652L51.0166 28.8646C50.6132 28.3998 50.1276 28.0621 49.5596 27.8515C48.993 27.6315 48.4127 27.5534 47.8186 27.6172C47.2205 27.6756 46.6754 27.8879 46.1831 28.2542C45.6907 28.6205 45.3314 29.0771 45.1049 29.6239C44.8746 30.1654 44.7833 30.7391 44.8311 31.345C44.875 31.9456 45.0549 32.519 45.3709 33.0652Z" fill="#181918"/>
<path d="M62.498 18.8918L60.3851 19.9553L64.203 27.5627L62.9653 28.1857L59.1474 20.5782L57.5472 21.3836L56.9242 20.146L58.5244 19.3406L57.1183 16.569L58.356 15.9461L59.7621 18.7176L61.875 17.6541L62.498 18.8918Z" fill="#181918"/>
<path d="M86.494 20.5054C85.7653 20.6285 85.0402 20.634 84.3186 20.5217C83.6035 20.4083 82.9565 20.183 82.3775 19.8459C81.7986 19.5088 81.3556 19.065 81.0485 18.5146L82.2461 17.8204C82.4574 18.1996 82.7764 18.5037 83.2032 18.7327C83.6355 18.9541 84.1185 19.1 84.6524 19.1704C85.1927 19.2397 85.7296 19.2293 86.2631 19.1392C86.8877 19.0336 87.4524 18.8311 87.9572 18.5317C88.462 18.2323 88.849 17.8691 89.1182 17.4422C89.3862 17.0088 89.4774 16.5383 89.3916 16.0309C89.3048 15.5169 89.0609 15.1231 88.66 14.8496C88.2591 14.576 87.7695 14.3911 87.1911 14.2948C86.6181 14.1908 86.0268 14.1368 85.4172 14.1328C84.4593 14.1273 83.586 14.0474 82.797 13.893C82.0145 13.7374 81.3658 13.4422 80.8506 13.0073C80.3344 12.5659 80.0053 11.9255 79.8635 11.0863C79.7305 10.299 79.8428 9.57744 80.2004 8.92145C80.5579 8.26546 81.0806 7.71541 81.7685 7.27129C82.4628 6.82608 83.2426 6.53036 84.1079 6.38415C84.817 6.26432 85.5286 6.25784 86.2426 6.36472C86.9566 6.47159 87.6063 6.69305 88.1918 7.02909C88.7837 7.36403 89.2452 7.81805 89.5762 8.39114L88.3574 9.07888C88.1451 8.69319 87.8227 8.38964 87.3905 8.16824C86.9637 7.93923 86.4839 7.79278 85.9512 7.72889C85.4173 7.6585 84.8804 7.66892 84.3404 7.76017C83.7212 7.8581 83.1598 8.06004 82.6561 8.36598C82.1577 8.66431 81.7746 9.03019 81.5065 9.4636C81.2374 9.89051 81.1451 10.3544 81.2298 10.8554C81.3287 11.4409 81.558 11.8673 81.9177 12.1344C82.2827 12.3939 82.7452 12.5567 83.3051 12.6227C83.8649 12.6887 84.4904 12.7269 85.1814 12.7373C86.0785 12.7396 86.928 12.8369 87.7301 13.0293C88.5311 13.2152 89.2038 13.5331 89.7482 13.9831C90.2916 14.4267 90.6281 15.0323 90.7579 15.8C90.8898 16.5807 90.7775 17.3023 90.421 17.9648C90.0634 18.6208 89.5375 19.1714 88.8432 19.6166C88.1554 20.0607 87.3723 20.357 86.494 20.5054Z" fill="#181918"/>
<path d="M104.306 10.5622L101.941 10.5339L101.829 19.0449L100.443 19.0283L100.555 10.5174L98.7638 10.496L98.7803 9.11042L100.572 9.13184L100.599 6.02419L101.984 6.04075L101.957 9.14841L104.322 9.17669L104.306 10.5622Z" fill="#181918"/>
<path d="M120.582 11.3132L121.943 11.5685L120.12 21.2964L118.758 21.0411L119.048 19.2226C118.615 19.7791 118.077 20.1952 117.435 20.4708C116.794 20.7399 116.077 20.8004 115.286 20.652C114.573 20.5183 113.93 20.2601 113.357 19.8775C112.785 19.4884 112.307 19.0128 111.923 18.4506C111.538 17.8884 111.271 17.2711 111.122 16.5987C110.973 15.9262 110.965 15.2333 111.099 14.5199C111.23 13.8195 111.483 13.1856 111.858 12.6181C112.24 12.0519 112.704 11.5785 113.252 11.1979C113.807 10.8185 114.413 10.5562 115.071 10.4111C115.737 10.2607 116.42 10.2511 117.121 10.3825C117.931 10.5344 118.602 10.8615 119.132 11.3637C119.663 11.8594 120.049 12.452 120.289 13.1414L120.582 11.3132ZM115.505 19.3236C116.199 19.4537 116.827 19.3969 117.39 19.1533C117.954 18.9032 118.423 18.5145 118.797 17.9871C119.177 17.461 119.433 16.851 119.563 16.1571C119.696 15.4437 119.681 14.7761 119.515 14.1544C119.351 13.5261 119.051 12.9966 118.615 12.5657C118.179 12.1349 117.617 11.855 116.929 11.7261C116.242 11.5972 115.581 11.6512 114.945 11.8879C114.318 12.1193 113.782 12.492 113.336 13.006C112.897 13.5212 112.612 14.129 112.481 14.8294C112.348 15.5363 112.4 16.2105 112.635 16.8522C112.872 17.4873 113.241 18.0264 113.742 18.4694C114.249 18.9136 114.837 19.1983 115.505 19.3236Z" fill="#181918"/>
<path d="M126.902 23.387L130.432 14.1406L131.726 14.6347L131.239 15.9107C131.744 15.567 132.312 15.3564 132.942 15.279C133.572 15.2017 134.195 15.2806 134.811 15.516C135.169 15.6524 135.497 15.8305 135.794 16.05L134.776 17.1341C134.548 16.9551 134.311 16.8185 134.064 16.7244C133.565 16.5338 133.058 16.4818 132.545 16.5683C132.038 16.6572 131.582 16.8611 131.178 17.18C130.774 17.4989 130.475 17.9111 130.282 18.4165L128.196 23.8812L126.902 23.387Z" fill="#181918"/>
<path d="M147.11 23.5015L145.05 22.3382L140.856 29.7447L139.649 29.0632L143.844 21.6568L142.284 20.7758L142.965 19.5693L144.525 20.4503L146.045 17.7394L147.251 18.4209L145.732 21.1317L147.791 22.295L147.11 23.5015Z" fill="#181918"/>
<path d="M151.649 37.442C150.945 36.8642 150.451 36.1556 150.167 35.3162C149.888 34.481 149.824 33.6176 149.976 32.726C150.137 31.8335 150.521 31.0176 151.128 30.2782C151.588 29.7173 152.117 29.2763 152.714 28.9551C153.315 28.6289 153.939 28.4246 154.587 28.3421C155.245 28.2588 155.891 28.3031 156.527 28.4751C157.163 28.6471 157.743 28.9487 158.269 29.38C158.835 29.8448 159.263 30.3841 159.553 30.9979C159.848 31.6158 160.001 32.2665 160.012 32.9499C160.028 33.6375 159.9 34.3227 159.63 35.0056C159.364 35.6927 158.959 36.3373 158.413 36.9394L151.927 31.6132C151.59 32.1479 151.387 32.7069 151.318 33.2904C151.254 33.878 151.321 34.441 151.519 34.9794C151.727 35.5169 152.063 35.9809 152.528 36.3712C153.038 36.7899 153.606 37.0342 154.231 37.104C154.862 37.178 155.493 37.0856 156.124 36.8267L157.003 37.971C156.14 38.398 155.222 38.5749 154.249 38.5017C153.28 38.4233 152.413 38.0701 151.649 37.442ZM152.606 30.7237L158.045 35.1895C158.398 34.6859 158.609 34.1331 158.676 33.5311C158.753 32.9282 158.689 32.3461 158.484 31.785C158.283 31.2187 157.945 30.7408 157.471 30.3514C156.997 29.962 156.467 29.7234 155.882 29.6355C155.301 29.5426 154.722 29.5924 154.145 29.7849C153.573 29.9724 153.06 30.2853 152.606 30.7237Z" fill="#181918"/>
<path d="M177.446 42.5186L178.317 43.596L166.773 52.9314L165.902 51.854L167.341 50.6902C166.633 50.8217 165.939 50.7765 165.258 50.5544C164.587 50.3333 163.995 49.9047 163.48 49.2685C163.028 48.7093 162.71 48.1009 162.526 47.4434C162.342 46.7859 162.284 46.1205 162.35 45.4473C162.426 44.775 162.622 44.1366 162.94 43.5321C163.257 42.9276 163.695 42.3992 164.254 41.9469C164.814 41.4947 165.422 41.1766 166.08 40.9928C166.742 40.8049 167.408 40.7462 168.076 40.8169C168.753 40.8885 169.394 41.083 169.999 41.4002C170.603 41.7175 171.131 42.1558 171.584 42.715C172.098 43.3512 172.391 44.0225 172.462 44.7291C172.542 45.4366 172.446 46.1208 172.174 46.7818L177.446 42.5186ZM164.533 48.4298C164.977 48.9787 165.492 49.3428 166.078 49.5221C166.67 49.6973 167.279 49.7054 167.905 49.5465C168.536 49.3927 169.126 49.0938 169.675 48.6499C170.24 48.1935 170.66 47.675 170.938 47.0944C171.22 46.5096 171.335 45.9118 171.282 45.301C171.229 44.6902 170.983 44.1129 170.543 43.5691C170.104 43.0253 169.567 42.6401 168.934 42.4137C168.307 42.1831 167.656 42.119 166.984 42.2215C166.312 42.324 165.699 42.5993 165.144 43.0474C164.585 43.4997 164.187 44.0464 163.951 44.6876C163.719 45.3246 163.65 45.9742 163.744 46.6363C163.843 47.3035 164.106 47.9013 164.533 48.4298Z" fill="#181918"/>
<path d="M177.07 73.5442C176.759 72.6463 176.642 71.7441 176.719 70.8376C176.805 69.9352 177.058 69.083 177.479 68.281C177.905 67.4769 178.47 66.7682 179.172 66.155C179.881 65.5396 180.703 65.07 181.638 64.7462C182.592 64.4159 183.54 64.2797 184.482 64.3377C185.424 64.3957 186.304 64.6182 187.122 65.0052C187.946 65.3901 188.664 65.9097 189.275 66.5642C189.887 67.2248 190.345 67.9916 190.647 68.8645C190.995 69.8684 191.089 70.8971 190.93 71.9506C190.773 73.0104 190.372 74.0009 189.728 74.9223L188.687 73.9734C189.169 73.248 189.463 72.4725 189.568 71.6471C189.675 70.8278 189.601 70.0472 189.344 69.3053C189.1 68.6007 188.726 67.9863 188.224 67.4621C187.73 66.942 187.148 66.5324 186.479 66.2334C185.81 65.9344 185.098 65.7652 184.344 65.7259C183.591 65.6866 182.833 65.7987 182.073 66.062C181.318 66.3232 180.657 66.7023 180.089 67.1992C179.521 67.6961 179.065 68.2658 178.722 68.9083C178.387 69.5549 178.185 70.2396 178.114 70.9624C178.049 71.683 178.14 72.3988 178.386 73.1096C178.589 73.6957 178.88 74.2161 179.261 74.6707C179.651 75.1295 180.105 75.5134 180.624 75.8225C181.143 76.1316 181.7 76.3505 182.296 76.4793C182.895 76.6142 183.508 76.6499 184.135 76.5864L182.911 73.0511L184.099 72.6398L185.851 77.6996C184.94 77.9939 184.029 78.1067 183.119 78.0379C182.208 77.9691 181.348 77.7433 180.538 77.3603C179.737 76.9815 179.032 76.4679 178.423 75.8197C177.823 75.1756 177.372 74.4171 177.07 73.5442Z" fill="#181918"/>
<path d="M181.159 91.4173C181.063 90.5119 181.208 89.6604 181.594 88.8628C181.981 88.0718 182.541 87.4116 183.274 86.8823C184.015 86.3588 184.86 86.0464 185.812 85.9451C186.534 85.8682 187.22 85.9245 187.87 86.114C188.527 86.3028 189.116 86.5951 189.636 86.9909C190.163 87.3926 190.593 87.8777 190.925 88.4461C191.258 89.0145 191.46 89.6366 191.532 90.3124C191.61 91.0406 191.537 91.7253 191.313 92.3662C191.09 93.0137 190.743 93.5848 190.271 94.0796C189.801 94.581 189.229 94.9803 188.558 95.2774C187.887 95.5812 187.146 95.7563 186.334 95.8029L185.445 87.4572C184.83 87.6023 184.294 87.8586 183.835 88.2259C183.377 88.5998 183.03 89.0482 182.794 89.571C182.565 90.0997 182.479 90.6662 182.537 91.2706C182.607 91.9267 182.84 92.499 183.238 92.9875C183.635 93.4827 184.15 93.8592 184.781 94.117L184.605 95.5492C183.691 95.2484 182.912 94.7308 182.27 93.9964C181.634 93.2612 181.264 92.4015 181.159 91.4173ZM186.553 87.2994L187.299 94.2968C187.904 94.1859 188.442 93.9395 188.912 93.5576C189.389 93.1816 189.752 92.7216 189.999 92.1777C190.253 91.6331 190.347 91.0557 190.282 90.4455C190.217 89.8353 190.007 89.2937 189.652 88.8207C189.302 88.3469 188.855 87.9765 188.309 87.7096C187.769 87.4419 187.184 87.3051 186.553 87.2994Z" fill="#181918"/>
<path d="M190.045 109.254L190.204 106.894L181.713 106.312L181.806 104.929L190.297 105.511L190.418 103.724L191.8 103.817L191.68 105.604L194.781 105.803L194.688 107.186L191.587 106.987L191.428 109.347L190.045 109.254Z" fill="#181918"/>
<path d="M176.452 129.094C176.717 128.404 177.081 127.777 177.544 127.213C178.006 126.655 178.529 126.213 179.113 125.886C179.698 125.559 180.306 125.403 180.936 125.418L180.924 126.803C180.49 126.792 180.066 126.912 179.652 127.163C179.242 127.422 178.87 127.764 178.538 128.188C178.204 128.618 177.94 129.085 177.746 129.591C177.519 130.182 177.406 130.771 177.407 131.358C177.408 131.945 177.524 132.463 177.755 132.912C177.992 133.363 178.35 133.681 178.831 133.865C179.318 134.052 179.781 134.042 180.22 133.836C180.66 133.63 181.068 133.302 181.445 132.853C181.826 132.413 182.173 131.931 182.487 131.408C182.978 130.586 183.491 129.875 184.026 129.274C184.558 128.68 185.142 128.271 185.778 128.049C186.421 127.829 187.139 127.871 187.934 128.176C188.68 128.462 189.244 128.926 189.627 129.567C190.01 130.209 190.218 130.938 190.25 131.757C190.28 132.581 190.138 133.403 189.824 134.222C189.567 134.894 189.21 135.51 188.755 136.07C188.3 136.63 187.779 137.077 187.192 137.41C186.602 137.75 185.977 137.916 185.315 137.91L185.343 136.51C185.783 136.524 186.208 136.401 186.618 136.141C187.033 135.89 187.403 135.551 187.729 135.125C188.061 134.701 188.325 134.234 188.521 133.722C188.752 133.139 188.863 132.553 188.856 131.964C188.853 131.383 188.733 130.867 188.496 130.416C188.265 129.967 187.912 129.652 187.438 129.47C186.884 129.257 186.4 129.238 185.987 129.412C185.578 129.594 185.203 129.909 184.861 130.358C184.519 130.806 184.168 131.325 183.808 131.915C183.35 132.686 182.834 133.368 182.26 133.961C181.693 134.556 181.077 134.974 180.413 135.214C179.754 135.456 179.062 135.438 178.335 135.159C177.596 134.875 177.031 134.412 176.642 133.768C176.259 133.126 176.053 132.393 176.023 131.569C175.99 130.751 176.133 129.926 176.452 129.094Z" fill="#181918"/>
<path d="M175.954 149.488L177.182 147.466L169.91 143.041L170.629 141.856L177.9 146.281L178.83 144.75L180.014 145.469L179.085 147L181.747 148.604L181.028 149.789L178.366 148.185L177.139 150.207L175.954 149.488Z" fill="#181918"/>
<path d="M167.03 163.118L166.117 164.161L158.669 157.643L159.581 156.601L160.999 157.776C160.741 157.12 160.656 156.445 160.745 155.752C160.84 155.063 161.152 154.415 161.682 153.809C162.16 153.263 162.709 152.841 163.33 152.542C163.956 152.248 164.608 152.078 165.288 152.033C165.968 151.988 166.635 152.072 167.29 152.285C167.945 152.499 168.545 152.845 169.091 153.323C169.628 153.792 170.045 154.332 170.343 154.944C170.636 155.56 170.808 156.201 170.857 156.866C170.901 157.537 170.819 158.192 170.609 158.833C170.4 159.483 170.06 160.076 169.591 160.612C169.048 161.233 168.425 161.644 167.723 161.845C167.026 162.05 166.32 162.081 165.604 161.937L167.03 163.118ZM162.715 154.673C162.25 155.205 161.979 155.775 161.903 156.383C161.831 156.995 161.927 157.597 162.191 158.187C162.451 158.783 162.846 159.313 163.377 159.778C163.923 160.256 164.506 160.581 165.126 160.755C165.75 160.933 166.359 160.944 166.952 160.788C167.544 160.632 168.071 160.29 168.532 159.764C168.992 159.238 169.282 158.641 169.401 157.973C169.521 157.316 169.473 156.664 169.257 156.019C169.037 155.379 168.658 154.825 168.122 154.355C167.581 153.882 166.974 153.583 166.302 153.46C165.635 153.34 164.983 153.384 164.347 153.59C163.706 153.801 163.162 154.162 162.715 154.673Z" fill="#181918"/>
<path d="M153.42 162.42L159.586 170.162L158.502 171.025L157.651 169.956C157.69 170.567 157.583 171.162 157.329 171.744C157.075 172.326 156.69 172.822 156.174 173.233C155.875 173.472 155.555 173.663 155.215 173.808L154.799 172.38C155.069 172.275 155.307 172.14 155.514 171.975C155.932 171.642 156.234 171.233 156.421 170.747C156.602 170.265 156.658 169.769 156.589 169.259C156.52 168.748 156.317 168.282 155.98 167.858L152.336 163.283L153.42 162.42Z" fill="#181918"/>
<path d="M143.044 179.761L145.093 178.579L140.849 171.201L142.049 170.509L146.293 177.887L147.845 176.992L148.537 178.192L146.985 179.087L148.546 181.774L147.346 182.467L145.785 179.779L143.736 180.961L143.044 179.761Z" fill="#181918"/>
<path d="M128.732 176.578C129.587 176.266 130.449 176.201 131.316 176.384C132.177 176.568 132.953 176.953 133.643 177.537C134.33 178.129 134.837 178.875 135.165 179.773C135.414 180.455 135.524 181.135 135.498 181.812C135.473 182.495 135.331 183.137 135.072 183.737C134.81 184.345 134.443 184.879 133.971 185.339C133.5 185.799 132.945 186.146 132.306 186.378C131.618 186.629 130.936 186.724 130.26 186.661C129.578 186.601 128.94 186.402 128.346 186.064C127.746 185.728 127.221 185.269 126.77 184.689C126.314 184.111 125.965 183.434 125.724 182.658L133.609 179.782C133.32 179.221 132.942 178.762 132.475 178.405C132.001 178.051 131.482 177.822 130.918 177.719C130.35 177.625 129.779 177.678 129.207 177.88C128.587 178.106 128.088 178.471 127.709 178.974C127.325 179.479 127.084 180.07 126.986 180.744L125.553 180.919C125.625 179.959 125.939 179.079 126.497 178.278C127.057 177.484 127.802 176.917 128.732 176.578ZM134.029 180.82L127.418 183.231C127.672 183.792 128.041 184.254 128.525 184.618C129.005 184.991 129.539 185.232 130.126 185.34C130.716 185.455 131.299 185.408 131.876 185.198C132.452 184.987 132.927 184.653 133.3 184.193C133.676 183.74 133.928 183.217 134.055 182.622C134.185 182.034 134.176 181.433 134.029 180.82Z" fill="#181918"/>
<path d="M111.242 196.209L109.871 196.411L107.704 181.724L109.075 181.522L109.345 183.353C109.592 182.676 109.984 182.101 110.521 181.629C111.053 181.163 111.723 180.871 112.533 180.752C113.244 180.647 113.93 180.682 114.589 180.858C115.249 181.034 115.852 181.322 116.397 181.722C116.938 182.129 117.387 182.623 117.746 183.204C118.106 183.784 118.338 184.43 118.443 185.142C118.548 185.853 118.512 186.539 118.336 187.199C118.161 187.865 117.873 188.467 117.472 189.007C117.066 189.554 116.573 190.007 115.992 190.366C115.411 190.725 114.765 190.957 114.054 191.062C113.244 191.181 112.517 191.092 111.873 190.793C111.223 190.502 110.683 190.072 110.252 189.502L111.242 196.209ZM112.719 182.085C112.021 182.188 111.445 182.446 110.993 182.86C110.541 183.28 110.224 183.8 110.042 184.42C109.854 185.042 109.811 185.702 109.914 186.4C110.02 187.118 110.253 187.744 110.612 188.278C110.972 188.819 111.428 189.222 111.981 189.487C112.533 189.752 113.156 189.834 113.847 189.732C114.539 189.63 115.144 189.364 115.661 188.934C116.178 188.511 116.564 187.984 116.818 187.352C117.072 186.721 117.146 186.053 117.042 185.348C116.937 184.637 116.669 184.016 116.237 183.486C115.807 182.963 115.282 182.573 114.664 182.318C114.04 182.063 113.392 181.985 112.719 182.085Z" fill="#181918"/>
</svg>
